<?xml version="1.0" encoding="UTF-8"?>
<svg version="1.1" xmlns="http://www.w3.org/2000/svg" width="1080" height="1080">
<path d="M0 0 C356.4 0 712.8 0 1080 0 C1080 356.4 1080 712.8 1080 1080 C723.6 1080 367.2 1080 0 1080 C0 723.6 0 367.2 0 0 Z " fill="#FEFEFE" transform="translate(0,0)"/>
<path d="M0 0 C44.22 0 88.44 0 134 0 C129.29333558 9.41332885 123.0452236 18.74529043 113 23 C98.48403857 26.78821388 81.47336064 24.74785583 66.8125 24.1875 C52.354375 23.795625 37.89625 23.40375 23 23 C23 52.37 23 81.74 23 112 C52.37 112 81.74 112 112 112 C112 101.11 112 90.22 112 79 C90.22 79 68.44 79 46 79 C50.69360045 69.6127991 57.74803668 61.13421939 67 56 C78.38879682 52.96166378 90.56790223 54.21734108 102.1875 54.8125 C118.4296875 55.4003125 118.4296875 55.4003125 135 56 C135 82.07 135 108.14 135 135 C90.45 135 45.9 135 0 135 C0 90.45 0 45.9 0 0 Z " fill="#1C4254" transform="translate(565,509)"/>
<path d="M0 0 C7.59 0 15.18 0 23 0 C23 36.63 23 73.26 23 111 C52.04 111 81.08 111 111 111 C111 81.63 111 52.26 111 22 C89.22 22 67.44 22 45 22 C45 14.74 45 7.48 45 0 C74.04 0 103.08 0 133 0 C133 43.89 133 87.78 133 133 C89.11 133 45.22 133 0 133 C0 89.11 0 45.22 0 0 Z " fill="#1A4052" transform="translate(82,511)"/>
<path d="M0 0 C3.52050049 2.11230029 6.38105355 4.00432303 9.5 6.5625 C13.35199311 9.68619899 17.24629605 12.73956008 21.1875 15.75 C26.00970203 19.43760842 30.76907629 23.19608981 35.5 27 C40.58207687 31.08401954 45.69962715 35.10996 50.87719727 39.07250977 C62.75943831 48.16695972 74.53596964 57.39961311 86.29248047 66.65576172 C89.29806309 69.02189525 92.30521735 71.38602781 95.3125 73.75 C95.85100586 74.17369873 96.38951172 74.59739746 96.94433594 75.03393555 C101.61622412 78.70683487 106.30881468 82.3513003 111 86 C111.33 57.62 111.66 29.24 112 0 C119.26 0 126.52 0 134 0 C134 43.89 134 87.78 134 133 C129.96187596 130.98093798 126.77247656 128.52509721 123.3125 125.6875 C117.69533298 121.13241991 112.01161441 116.68335766 106.25 112.3125 C100.65049543 108.05720179 95.14493266 103.71967235 89.7265625 99.234375 C84.81563096 95.209944 79.79980474 91.31812616 74.79833984 87.40722656 C71.86192649 85.10944126 68.93121177 82.80441435 66 80.5 C64.83336158 79.58329738 63.66669489 78.66663074 62.5 77.75 C55.5 72.25 55.5 72.25 53.74829102 70.87353516 C52.58747924 69.96154981 51.42651044 69.04976428 50.26538086 68.13818359 C47.25778258 65.77654932 44.25340587 63.4109769 41.25390625 61.0390625 C40.63580078 60.55115234 40.01769531 60.06324219 39.38085938 59.56054688 C38.21315875 58.63867796 37.04640844 57.71560333 35.88085938 56.79101562 C31.99475919 53.72598823 28.03882289 50.88487349 24 48 C23.67 76.38 23.34 104.76 23 134 C15.41 134 7.82 134 0 134 C0 89.78 0 45.56 0 0 Z " fill="#183F51" transform="translate(713,510)"/>
<path d="M0 0 C44.55 0 89.1 0 135 0 C135 44.22 135 88.44 135 134 C127.41 134 119.82 134 112 134 C112 97.37 112 60.74 112 23 C82.63 23 53.26 23 23 23 C23 59.63 23 96.26 23 134 C15.41 134 7.82 134 0 134 C0 89.78 0 45.56 0 0 Z " fill="#1C4254" transform="translate(863,510)"/>
<path d="M0 0 C44.22 0 88.44 0 134 0 C132.08305299 3.83389401 129.84077155 6.93154207 127.1875 10.25 C126.70539063 10.8584375 126.22328125 11.466875 125.7265625 12.09375 C121.47486077 17.44371739 117.15881328 22.74143971 112.83862305 28.03613281 C109.34616562 32.32230709 105.90267402 36.64228765 102.5 41 C97.41515323 47.51084512 92.21117606 53.92069045 86.9921875 60.32421875 C83.99906512 63.99708761 81.03187931 67.68992763 78.078125 71.39453125 C76.46646876 73.4151604 74.85165142 75.43309439 73.234375 77.44921875 C64.05898128 88.89163226 55.00468707 100.4225452 46 112 C75.37 112 104.74 112 135 112 C135 119.59 135 127.18 135 135 C90.78 135 46.56 135 1 135 C2.98576839 131.02846323 5.37149137 127.8129336 8.125 124.375 C8.6214502 123.74964355 9.11790039 123.12428711 9.62939453 122.47998047 C11.08297726 120.65067362 12.54115799 118.82511333 14 117 C15.01320313 115.72382812 15.01320313 115.72382812 16.046875 114.421875 C19.00707803 110.70264555 21.99333035 107.0052244 24.99609375 103.3203125 C30.6706513 96.35646833 36.30657865 89.37040102 41.83520508 82.29003906 C45.87801787 77.12539864 50.01727279 72.04221504 54.1640625 66.9609375 C58.10824338 62.1195022 61.9817766 57.22795524 65.82275391 52.30444336 C69.96986371 47.00317795 74.21920529 41.7871653 78.49804688 36.59179688 C79.01173828 35.96466797 79.52542969 35.33753906 80.0546875 34.69140625 C80.50312012 34.14685791 80.95155273 33.60230957 81.41357422 33.04125977 C83.70164587 30.09718973 85.83276703 27.03412616 88 24 C58.96 23.67 29.92 23.34 0 23 C0 15.41 0 7.82 0 0 Z " fill="#1B4153" transform="translate(376,509)"/>
<path d="M0 0 C44.22 0 88.44 0 134 0 C134 0.66 134 1.32 134 2 C132.7421875 3.234375 132.7421875 3.234375 130.875 4.75 C127.97593485 7.10521902 125.5213774 9.51918209 123.20162964 12.42947388 C117.91590548 18.81688459 113.3046701 23.62319633 104.76182938 24.48957443 C100.14272397 24.6659679 95.56227775 24.54854742 90.9453125 24.3671875 C89.17250759 24.34654866 87.3996167 24.33229996 85.62670898 24.32446289 C79.12482029 24.25169209 72.62476983 24.05623014 66.125 23.875 C44.283125 23.441875 44.283125 23.441875 22 23 C22 52.37 22 81.74 22 112 C58.63 112 95.26 112 133 112 C128.25282935 121.4943413 119.2100258 132.3994364 109.01904678 136.0751915 C101.27642712 137.6137685 93.48804992 137.19267327 85.64453125 136.85546875 C83.43999404 136.82744993 81.23532926 136.80811794 79.03063965 136.79748535 C70.9559689 136.69882721 62.88402383 136.43355719 54.8125 136.1875 C36.724375 135.795625 18.63625 135.40375 0 135 C0 90.45 0 45.9 0 0 Z " fill="#1B4053" transform="translate(234,509)"/>
<path d="M0 0 C7.26 0 14.52 0 22 0 C22 44.22 22 88.44 22 134 C14.74 134 7.48 134 0 134 C0 89.78 0 45.56 0 0 Z " fill="#173D50" transform="translate(526,510)"/>
<path d="M0 0 C29.37 0 58.74 0 89 0 C89 0.66 89 1.32 89 2 C87.49609375 3.48046875 87.49609375 3.48046875 85.4375 5.1875 C81.41323374 8.60741532 77.69127672 12.22769526 74 16 C67 23 67 23 64.21591187 23.24050903 C63.03010529 23.23606781 61.84429871 23.23162659 60.62255859 23.22705078 C59.96877731 23.22734283 59.31499603 23.22763489 58.6414032 23.22793579 C56.47694704 23.22654065 54.31283364 23.2109712 52.1484375 23.1953125 C50.64914132 23.19158302 49.1498427 23.18873574 47.65054321 23.18673706 C43.70163257 23.17909548 39.75286871 23.1594426 35.80401611 23.1373291 C31.77561428 23.1168819 27.74718876 23.10773776 23.71875 23.09765625 C15.81242508 23.07619709 7.9062477 23.04101078 0 23 C0 15.41 0 7.82 0 0 Z " fill="#B38548" transform="translate(269,565)"/>
<path d="M0 0 C115.5 0 231 0 350 0 C350 1.65 350 3.3 350 5 C234.5 5 119 5 0 5 C0 3.35 0 1.7 0 0 Z " fill="#153E4F" transform="translate(648,483)"/>
<path d="M0 0 C115.5 0 231 0 350 0 C350 1.65 350 3.3 350 5 C234.5 5 119 5 0 5 C0 3.35 0 1.7 0 0 Z " fill="#153E4F" transform="translate(82,483)"/>
<path d="M0 0 C2.97 0 5.94 0 9 0 C9 7.26 9 14.52 9 22 C20.55 22 32.1 22 44 22 C44 14.74 44 7.48 44 0 C46.64 0 49.28 0 52 0 C52 17.16 52 34.32 52 52 C49.36 52 46.72 52 44 52 C44 44.74 44 37.48 44 30 C32.45 30 20.9 30 9 30 C9 37.26 9 44.52 9 52 C6.03 52 3.06 52 0 52 C0 34.84 0 17.68 0 0 Z " fill="#B18345" transform="translate(514,436)"/>
<path d="M0 0 C17.16 0 34.32 0 52 0 C46 7 46 7 44 9 C41.34805573 9.17503961 38.79927846 9.23169603 36.1484375 9.1953125 C35.46241455 9.19329834 34.7763916 9.19128418 34.06958008 9.18920898 C31.50465213 9.17873758 28.93981941 9.15081496 26.375 9.125 C17.774375 9.063125 17.774375 9.063125 9 9 C9 20.55 9 32.1 9 44 C22.86 44 36.72 44 51 44 C47 50 47 50 45 52 C43.05111694 52.24050903 43.05111694 52.24050903 40.64208984 52.22705078 C39.7287085 52.22680908 38.81532715 52.22656738 37.87426758 52.22631836 C36.43216919 52.21097046 36.43216919 52.21097046 34.9609375 52.1953125 C34.07833252 52.19329834 33.19572754 52.19128418 32.28637695 52.18920898 C28.98253193 52.17872778 25.67876087 52.15080528 22.375 52.125 C11.299375 52.063125 11.299375 52.063125 0 52 C0 34.84 0 17.68 0 0 Z " fill="#B28447" transform="translate(575,436)"/>
<path d="M0 0 C17.16 0 34.32 0 52 0 C46 7 46 7 44 9 C39.71 9 35.42 9 31 9 C31 23.19 31 37.38 31 52 C28.03 52 25.06 52 22 52 C22 37.81 22 23.62 22 9 C14.74 9 7.48 9 0 9 C0 6.03 0 3.06 0 0 Z " fill="#B68A50" transform="translate(453,436)"/>
<path d="M0 0 C7.59 0 15.18 0 23 0 C23 7.59 23 15.18 23 23 C15.41 23 7.82 23 0 23 C0 15.41 0 7.82 0 0 Z " fill="#B5884D" transform="translate(919,566)"/>
<path d="M0 0 C28.38 0 56.76 0 86 0 C86.495 1.98 86.495 1.98 87 4 C57.63 4 28.26 4 -2 4 C-1.34 2.68 -0.68 1.36 0 0 Z " fill="#274D5D" transform="translate(888,529)"/>
<path d="M0 0 C11.55 0 23.1 0 35 0 C27.30785899 8.97416451 27.30785899 8.97416451 24.29443359 9.22705078 C23.17375488 9.21657715 22.05307617 9.20610352 20.8984375 9.1953125 C19.08085938 9.18564453 19.08085938 9.18564453 17.2265625 9.17578125 C15.95554687 9.15902344 14.68453125 9.14226562 13.375 9.125 C12.09625 9.11597656 10.8175 9.10695313 9.5 9.09765625 C6.33314833 9.07402303 3.16666576 9.04107629 0 9 C0 6.03 0 3.06 0 0 Z " fill="#BA9059" transform="translate(592,458)"/>
<path d="M0 0 C1.32 0.33 2.64 0.66 4 1 C3.67 16.18 3.34 31.36 3 47 C1.35 47 -0.3 47 -2 47 C-2.04940499 41.35833009 -2.08572193 35.71678587 -2.10986328 30.07495117 C-2.11992639 28.15533251 -2.13357816 26.23572919 -2.15087891 24.31616211 C-2.17511364 21.55839248 -2.18647992 18.80082536 -2.1953125 16.04296875 C-2.20563507 15.18350143 -2.21595764 14.32403412 -2.22659302 13.43852234 C-2.22674408 12.63791885 -2.22689514 11.83731537 -2.22705078 11.01245117 C-2.231492 10.3085173 -2.23593323 9.60458344 -2.24050903 8.87931824 C-2 7 -2 7 0 4 C0 2.68 0 1.36 0 0 Z " fill="#B08242" transform="translate(480,441)"/>
<path d="M0 0 C1.98 0 3.96 0 6 0 C5.01 0.495 5.01 0.495 4 1 C4.33 1.99 4.66 2.98 5 4 C10.94 4 16.88 4 23 4 C23 5.32 23 6.64 23 8 C15.41 8 7.82 8 0 8 C0 5.36 0 2.72 0 0 Z " fill="#B08242" transform="translate(593,458)"/>
<path d="M0 0 C0.33 0.99 0.66 1.98 1 3 C21.46 3.33 41.92 3.66 63 4 C63 4.33 63 4.66 63 5 C41.22 5 19.44 5 -3 5 C-1 1 -1 1 0 0 Z " fill="#426573" transform="translate(614,583)"/>
<path d="M0 0 C1.2065625 0.0309375 1.2065625 0.0309375 2.4375 0.0625 C-2.6565919 6.76709519 -2.6565919 6.76709519 -6.4375 8 C-7.13875 8.020625 -7.84 8.04125 -8.5625 8.0625 C-8.2325 7.0725 -7.9025 6.0825 -7.5625 5.0625 C-5.9125 4.7325 -4.2625 4.4025 -2.5625 4.0625 C-2.8925 3.0725 -3.2225 2.0825 -3.5625 1.0625 C-2.5625 0.0625 -2.5625 0.0625 0 0 Z " fill="#B58B54" transform="translate(624.5625,457.9375)"/>
<path d="M0 0 C1.32 0.33 2.64 0.66 4 1 C2.02 3.31 0.04 5.62 -2 8 C-2.99 7.34 -3.98 6.68 -5 6 C-3.68 5.67 -2.36 5.34 -1 5 C-1 4.34 -1 3.68 -1 3 C-1.66 2.67 -2.32 2.34 -3 2 C-2.01 1.34 -1.02 0.68 0 0 Z " fill="#B88D54" transform="translate(622,480)"/>
<path d="M0 0 C1.98 0 3.96 0 6 0 C5.34 1.65 4.68 3.3 4 5 C2.68 5 1.36 5 0 5 C0 3.35 0 1.7 0 0 Z " fill="#274B5B" transform="translate(82,483)"/>
<path d="M0 0 C0 1.98 0 3.96 0 6 C-1.32 5.34 -2.64 4.68 -4 4 C-4 3.01 -4 2.02 -4 1 C-2 0 -2 0 0 0 Z " fill="#264859" transform="translate(847,637)"/>
<path d="M0 0 C0.33 1.32 0.66 2.64 1 4 C-1.97 6.475 -1.97 6.475 -5 9 C-4.38722388 6.03824877 -3.74627478 4.61941217 -2 2 C-1.34 2.33 -0.68 2.66 0 3 C0 2.01 0 1.02 0 0 Z " fill="#1E4553" transform="translate(356,629)"/>
<path d="M0 0 C0.625 1.875 0.625 1.875 1 4 C0.34 4.66 -0.32 5.32 -1 6 C-3.125 5.625 -3.125 5.625 -5 5 C-3.35 3.35 -1.7 1.7 0 0 Z " fill="#345563" transform="translate(628,569)"/>
<path d="M0 0 C0.99 0.66 1.98 1.32 3 2 C1.35 3.32 -0.3 4.64 -2 6 C-2 2 -2 2 0 0 Z " fill="#345563" transform="translate(691,514)"/>
</svg>
