<?xml version="1.0" standalone="no"?>
<!DOCTYPE svg PUBLIC "-//W3C//DTD SVG 20010904//EN"
 "http://www.w3.org/TR/2001/REC-SVG-20010904/DTD/svg10.dtd">
<svg version="1.0" xmlns="http://www.w3.org/2000/svg"
 width="512.000000pt" height="512.000000pt" viewBox="0 0 512.000000 512.000000"
 preserveAspectRatio="xMidYMid meet">

<g transform="translate(0.000000,512.000000) scale(0.100000,-0.100000)"
fill="#000000" stroke="none">
<path d="M2162 3541 c-194 -125 -357 -232 -363 -238 -7 -7 111 -87 358 -243
202 -128 375 -235 383 -237 8 -2 174 102 368 230 l352 233 -362 240 c-199 131
-366 240 -372 241 -6 1 -170 -101 -364 -226z"/>
<path d="M3074 2649 c-214 -137 -390 -253 -391 -257 -2 -4 162 -115 363 -247
201 -132 371 -244 377 -248 8 -6 160 83 419 245 224 139 407 255 407 258 0 3
-149 99 -332 213 -183 114 -359 225 -393 246 l-60 39 -390 -249z"/>
<path d="M1261 2635 c-205 -134 -377 -247 -382 -252 -9 -9 746 -469 767 -467
12 2 757 475 752 479 -41 31 -738 479 -748 481 -8 2 -183 -107 -389 -241z"/>
<path d="M2163 2067 c-198 -128 -362 -236 -363 -242 -2 -10 35 -33 512 -322
l258 -156 365 228 365 228 -48 32 c-205 138 -712 465 -719 464 -4 0 -171 -104
-370 -232z"/>
</g>
</svg>
